<svg width="108" height="32" viewBox="0 0 108 32" fill="none" xmlns="http://www.w3.org/2000/svg">
<path d="M4.24709 11.7893C2.51368 9.11443 3.27689 5.54081 5.95177 3.80741L9.63266 1.42207C10.1676 1.07539 10.8824 1.22804 11.229 1.76301L21.506 17.6217C24.2794 21.9015 23.0583 27.6193 18.7785 30.3927L18.0036 30.8949C17.4686 31.2416 16.7539 31.0889 16.4072 30.554L4.24709 11.7893Z" fill="#1076C8"/>
<path d="M0.179688 5.77126C0.179688 3.21545 2.25158 1.14355 4.80739 1.14355H10.1801C10.8191 1.14355 11.3371 1.66153 11.3371 2.30048V22.1061C11.3371 27.2177 7.19329 31.3615 2.08167 31.3615H1.33661C0.697661 31.3615 0.179688 30.8435 0.179688 30.2045V5.77126Z" fill="#00C1EC"/>
<path d="M27.6074 26.7395C27.6074 29.2953 25.5355 31.3672 22.9797 31.3672L17.607 31.3672C16.968 31.3672 16.45 30.8492 16.45 30.2103L16.45 10.4047C16.45 5.29306 20.5938 1.14927 25.7054 1.14927L26.4505 1.14927C27.0894 1.14927 27.6074 1.66725 27.6074 2.3062L27.6074 26.7395Z" fill="#00C1EC"/>
<path d="M53.154 19.5309C53.2518 20.3136 53.5943 20.9105 54.1814 21.3215C54.7685 21.7324 55.5121 21.9379 56.4123 21.9379C57.156 21.9379 57.7724 21.8597 58.2617 21.7031C58.7509 21.5465 59.2402 21.3313 59.7294 21.0573C59.9055 20.9399 60.0621 20.8812 60.1991 20.8812C60.4144 20.8812 60.522 21.0182 60.522 21.2921C60.522 21.7031 60.3654 22.1434 60.0523 22.6131C59.7588 23.0828 59.2891 23.4937 58.6433 23.846C57.9975 24.1787 57.1364 24.345 56.0601 24.345C55.0033 24.345 54.0346 24.1297 53.154 23.6992C52.2929 23.2491 51.608 22.5935 51.0992 21.7324C50.5904 20.8518 50.3359 19.7755 50.3359 18.5034C50.3359 17.388 50.5512 16.3997 50.9817 15.5386C51.4319 14.6776 52.0581 14.0024 52.8604 13.5132C53.6824 13.0239 54.6413 12.7793 55.7372 12.7793C56.9114 12.7793 57.8605 13.0239 58.5846 13.5132C59.3282 13.9828 59.8664 14.5993 60.1991 15.3625C60.5513 16.1257 60.7275 16.9379 60.7275 17.7989C60.7275 18.0925 60.7177 18.3567 60.6981 18.5915C60.6981 18.8068 60.6883 18.9927 60.6688 19.1492C60.6492 19.4036 60.4829 19.5309 60.1697 19.5309H53.154ZM53.154 17.5054H57.9094C57.9486 17.1727 57.9094 16.8302 57.792 16.478C57.6942 16.1062 57.4789 15.793 57.1462 15.5386C56.8135 15.2842 56.3439 15.157 55.7372 15.157C54.9935 15.157 54.3967 15.3723 53.9466 15.8028C53.516 16.2138 53.2518 16.7813 53.154 17.5054Z" fill="#4D4D4D"/>
<path d="M69.1767 24.3335C68.5979 24.3335 68.0545 24.0549 67.7166 23.5849L60.4317 13.4507C60.3248 13.302 60.431 13.0947 60.6142 13.0947H62.8603C63.4407 13.0947 63.9854 13.3748 64.323 13.8469L71.5679 23.978C71.6743 24.1267 71.5679 24.3335 71.385 24.3335H69.1767Z" fill="#4D4D4D"/>
<path d="M62.8213 24.3335C63.4001 24.3335 63.9436 24.0549 64.2814 23.5849L71.5664 13.4507C71.6733 13.302 71.567 13.0947 71.3839 13.0947H69.1377C68.5573 13.0947 68.0126 13.3748 67.675 13.8469L60.4302 23.978C60.3238 24.1267 60.4301 24.3335 60.613 24.3335H62.8213Z" fill="#4D4D4D"/>
<path d="M93.5053 14.8879C93.8379 14.2617 94.2391 13.841 94.7088 13.6257C95.1785 13.3909 95.8145 13.2734 96.6168 13.2734H96.9397C97.1354 13.2734 97.2333 13.3909 97.2333 13.6257V14.9173C97.2333 15.5009 96.7602 15.9741 96.1765 15.9741C95.1002 15.9741 94.3957 16.248 94.063 16.796C93.7499 17.3244 93.5933 18.1072 93.5933 19.1444V23.9879C93.5933 24.2031 93.4955 24.3108 93.2998 24.3108H91.0982C90.922 24.3108 90.834 24.2031 90.834 23.9879V13.6257C90.834 13.3909 90.922 13.2734 91.0982 13.2734H91.2449C92.517 13.2734 93.2704 13.8116 93.5053 14.8879Z" fill="#4D4D4D"/>
<path d="M100.248 19.4859C100.346 20.2687 100.688 20.8656 101.275 21.2766C101.862 21.6875 102.606 21.893 103.506 21.893C104.25 21.893 104.866 21.8147 105.355 21.6582C105.845 21.5016 106.334 21.2863 106.823 21.0124C106.999 20.895 107.156 20.8362 107.293 20.8362C107.508 20.8362 107.616 20.9732 107.616 21.2472C107.616 21.6582 107.459 22.0985 107.146 22.5682C106.853 23.0378 106.383 23.4488 105.737 23.8011C105.091 24.1337 104.23 24.3001 103.154 24.3001C102.097 24.3001 101.128 24.0848 100.248 23.6543C99.3867 23.2042 98.7017 22.5486 98.1929 21.6875C97.6841 20.8069 97.4297 19.7306 97.4297 18.4585C97.4297 17.343 97.645 16.3548 98.0755 15.4937C98.5256 14.6326 99.1518 13.9575 99.9542 13.4682C100.776 12.979 101.735 12.7344 102.831 12.7344C104.005 12.7344 104.954 12.979 105.678 13.4682C106.422 13.9379 106.96 14.5544 107.293 15.3176C107.645 16.0808 107.821 16.8929 107.821 17.754C107.821 18.0476 107.811 18.3117 107.792 18.5466C107.792 18.7619 107.782 18.9478 107.763 19.1043C107.743 19.3587 107.577 19.4859 107.263 19.4859H100.248ZM100.248 17.4605H105.003C105.042 17.1278 105.003 16.7853 104.886 16.4331C104.788 16.0612 104.573 15.7481 104.24 15.4937C103.907 15.2393 103.438 15.1121 102.831 15.1121C102.087 15.1121 101.49 15.3274 101.04 15.7579C100.61 16.1689 100.346 16.7364 100.248 17.4605Z" fill="#4D4D4D"/>
<path d="M76.9038 16.1515H78.7144C78.9627 16.1515 79.1639 15.9503 79.1639 15.702L79.164 13.5977C79.1641 13.3494 78.9628 13.1481 78.7145 13.1481H76.9038V9.7311C76.9038 9.51584 76.8059 9.4082 76.6102 9.4082H76.4634C75.7002 9.4082 75.1229 9.6039 74.7315 9.99529C74.3206 10.3867 74.1151 11.0129 74.1151 11.874V13.1481H73.7116C72.7185 13.1481 71.9134 13.9532 71.9134 14.9463V15.702C71.9134 15.9503 72.1147 16.1515 72.363 16.1515H74.1151V23.9974C74.1151 24.2127 74.2129 24.3203 74.4086 24.3203H76.6102C76.8059 24.3203 76.9038 24.2127 76.9038 23.9974V16.1515Z" fill="#4D4D4D"/>
<path d="M84.9216 24.3358C86.4327 24.3358 87.7243 23.8172 88.5267 22.78C89.3291 21.7428 89.7302 20.3827 89.7302 18.6997L89.7305 13.4545C89.7305 13.2062 89.5292 13.0049 89.2809 13.0049L88.7104 13.0049C87.7173 13.0049 86.9122 13.81 86.9122 14.8031V19.0519C86.9122 19.9913 86.6969 20.6762 86.2664 21.1068C85.8359 21.5373 85.5674 21.7526 84.9216 21.7526C84.2562 21.7526 83.9682 21.5569 83.5181 21.1655C83.068 20.7545 82.843 20.0598 82.843 19.0813V14.8034C82.843 13.8103 82.0378 13.0051 81.0447 13.005C80.8332 13.005 80.6367 13.005 80.4738 13.0049C80.2255 13.0049 80.0249 13.2062 80.0249 13.4545V18.8758C80.0249 20.5392 80.4359 21.87 81.2578 22.868C82.0798 23.8465 83.1212 24.3358 84.9216 24.3358Z" fill="#4D4D4D"/>
<path d="M46.4023 18.9037V9.45347C46.4023 8.46035 47.2077 7.65527 48.2008 7.65527C48.4581 7.65527 48.6978 7.65527 48.8903 7.65527C49.1386 7.65527 49.3394 7.85654 49.3394 8.10482V23.8391C49.3394 24.0874 49.1381 24.2886 48.8898 24.2886H46.8818C46.6021 24.2886 46.3823 24.159 46.2225 23.8997L39.689 13.2795V22.4904C39.689 23.4836 38.8839 24.2886 37.8908 24.2886H37.0816C36.8618 24.2886 36.752 24.179 36.752 23.9596L36.7522 8.10509C36.7522 7.85688 36.9534 7.65564 37.2016 7.65555L37.9807 7.65527C38.6001 7.65527 39.0796 7.77494 39.4193 8.01427C39.7589 8.23365 40.0886 8.60262 40.4083 9.12116L46.4023 18.9037Z" fill="#4D4D4D"/>
</svg>
